<?xml version="1.0" encoding="utf-8"?>
<!-- Generator: Adobe Adobe Illustrator 24.2.0, SVG Export Plug-In . SVG Version: 6.00 Build 0)  -->
<svg version="1.1" id="Layer_1" xmlns="http://www.w3.org/2000/svg" xmlns:xlink="http://www.w3.org/1999/xlink" x="0px" y="0px"
	 viewBox="0 0 100 20" style="enable-background:new 0 0 100 20;" xml:space="preserve">
<style type="text/css">
	.st0{fill:#662D91;}
	.st1{fill:#8C8C8C;}
	.st2{fill:#FF00D5;stroke:#FF00D5;stroke-miterlimit:10;}
</style>
<g>
	<path class="st0" d="M16.75,19.72c-5.36,0-9.72-4.36-9.72-9.72c0-5.36,4.36-9.72,9.72-9.72h66.5c5.36,0,9.72,4.36,9.72,9.72
		c0,5.36-4.36,9.72-9.72,9.72H16.75z"/>
	<path d="M83.25,0.57c5.2,0,9.43,4.23,9.43,9.43s-4.23,9.43-9.43,9.43h-66.5c-5.2,0-9.43-4.23-9.43-9.43s4.23-9.43,9.43-9.43H83.25
		 M83.25,0h-66.5c-5.52,0-10,4.48-10,10s4.48,10,10,10h66.5c5.52,0,10-4.48,10-10S88.77,0,83.25,0L83.25,0z"/>
</g>
<g>
	<path class="st1" d="M6.75,16.47c-3.57,0-6.47-2.9-6.47-6.47s2.9-6.47,6.47-6.47s6.47,2.9,6.47,6.47S10.32,16.47,6.75,16.47z"/>
	<path d="M6.75,3.82c3.41,0,6.18,2.77,6.18,6.18s-2.77,6.18-6.18,6.18S0.57,13.41,0.57,10S3.34,3.82,6.75,3.82 M6.75,3.25
		C3.02,3.25,0,6.27,0,10s3.02,6.75,6.75,6.75S13.5,13.73,13.5,10S10.48,3.25,6.75,3.25L6.75,3.25z"/>
</g>
<g>
	<path class="st1" d="M93.25,16.47c-3.57,0-6.47-2.9-6.47-6.47s2.9-6.47,6.47-6.47s6.47,2.9,6.47,6.47S96.82,16.47,93.25,16.47z"/>
	<path d="M93.25,3.82c3.41,0,6.18,2.77,6.18,6.18s-2.77,6.18-6.18,6.18s-6.18-2.77-6.18-6.18S89.84,3.82,93.25,3.82 M93.25,3.25
		c-3.73,0-6.75,3.02-6.75,6.75s3.02,6.75,6.75,6.75S100,13.73,100,10S96.98,3.25,93.25,3.25L93.25,3.25z"/>
</g>
<path class="st2" d="M20.59,6.32l-1.03,5.3c-0.1,0.49,0.28,0.95,0.79,0.95h2.06c0.5,0,0.88-0.46,0.79-0.95l-1.03-5.3
	C21.99,5.46,20.76,5.46,20.59,6.32z"/>
<path class="st2" d="M77.84,6.32l-1.03,5.3c-0.1,0.49,0.28,0.95,0.79,0.95h2.06c0.5,0,0.88-0.46,0.79-0.95l-1.03-5.3
	C79.24,5.46,78.01,5.46,77.84,6.32z"/>
<path class="st2" d="M66.39,6.32l-1.03,5.3c-0.1,0.49,0.28,0.95,0.79,0.95h2.06c0.5,0,0.88-0.46,0.79-0.95l-1.03-5.3
	C67.79,5.46,66.56,5.46,66.39,6.32z"/>
<path class="st2" d="M32.04,6.32l-1.03,5.3c-0.1,0.49,0.28,0.95,0.79,0.95h2.06c0.5,0,0.88-0.46,0.79-0.95l-1.03-5.3
	C33.44,5.46,32.21,5.46,32.04,6.32z"/>
<path class="st2" d="M54.94,6.32l-1.03,5.3c-0.1,0.49,0.28,0.95,0.79,0.95h2.06c0.5,0,0.88-0.46,0.79-0.95l-1.03-5.3
	C56.34,5.46,55.11,5.46,54.94,6.32z"/>
<path class="st2" d="M43.49,6.32l-1.03,5.3c-0.1,0.49,0.28,0.95,0.79,0.95h2.06c0.5,0,0.88-0.46,0.79-0.95l-1.03-5.3
	C44.89,5.46,43.66,5.46,43.49,6.32z"/>
</svg>
